<?xml version="1.0" encoding="UTF-8"?>
<svg version="1.1" xmlns="http://www.w3.org/2000/svg" width="512" height="512">
<path d="M0 0 C168.96 0 337.92 0 512 0 C512 168.96 512 337.92 512 512 C343.04 512 174.08 512 0 512 C0 343.04 0 174.08 0 0 Z " fill="#000000" transform="translate(0,0)"/>
<path d="M0 0 C0.495 0.99 0.495 0.99 1 2 C0.31863508 3.9215686 -0.4477142 5.81319439 -1.25 7.6875 C-3.17955472 12.49298505 -4.4691177 16.9575237 -5.3125 22.0625 C-10.24111311 48.96103255 -27.0946517 74.73155401 -49.1875 90.6875 C-58.40173257 96.80830443 -68.24552077 102.23495947 -79 105 C-78.319375 104.360625 -77.63875 103.72125 -76.9375 103.0625 C-68.0012319 94.0246834 -62.32647769 84.13917806 -61.4375 71.3125 C-61.35371094 70.13300781 -61.26992187 68.95351563 -61.18359375 67.73828125 C-61.09271484 66.38283203 -61.09271484 66.38283203 -61 65 C-59.94941406 64.63648438 -58.89882812 64.27296875 -57.81640625 63.8984375 C-49.87616204 61.0796508 -42.70793387 58.2545482 -36 53 C-36.81082031 53.39832031 -37.62164062 53.79664063 -38.45703125 54.20703125 C-50.33831357 59.89178914 -63.17165358 65.11294039 -76.52734375 61.2734375 C-80.68363574 59.36943782 -83.65618247 57.00402162 -86 53 C-86.625 50.625 -86.625 50.625 -86 48 C-82.82934276 43.18972206 -78.90646795 39.92051664 -74 37 C-73.34 37.33 -72.68 37.66 -72 38 C-72.66 38.5775 -73.32 39.155 -74 39.75 C-76.44290923 41.99653977 -76.44290923 41.99653977 -76 46 C-69.47871117 49.26064442 -61.64625465 46.35737973 -55.15234375 44.26000977 C-41.93789979 39.71831365 -28.51179706 31.80276375 -18.71484375 21.69140625 C-16 19 -16 19 -14 19 C-13.73832031 18.41863281 -13.47664063 17.83726562 -13.20703125 17.23828125 C-11.93164068 14.8732366 -10.50221425 13.16316451 -8.6875 11.1875 C-5.49052631 7.62267369 -2.71160545 3.94415338 0 0 Z " fill="#F1C81A" transform="translate(174,219)"/>
<path d="M0 0 C1 2 1 2 -0.1171875 5.38671875 C-0.69049427 6.82541022 -1.27744109 8.2587113 -1.875 9.6875 C-2.19162598 10.44554932 -2.50825195 11.20359863 -2.83447266 11.98461914 C-11.65967559 32.47642441 -24.86190136 48.80704809 -45.8515625 57.78125 C-55.60547602 61.55695846 -66.1330641 64.26159208 -76.52734375 61.2734375 C-80.68363574 59.36943782 -83.65618247 57.00402162 -86 53 C-86.625 50.625 -86.625 50.625 -86 48 C-82.82934276 43.18972206 -78.90646795 39.92051664 -74 37 C-73.34 37.33 -72.68 37.66 -72 38 C-72.66 38.5775 -73.32 39.155 -74 39.75 C-76.44290923 41.99653977 -76.44290923 41.99653977 -76 46 C-69.47871117 49.26064442 -61.64625465 46.35737973 -55.15234375 44.26000977 C-41.93789979 39.71831365 -28.51179706 31.80276375 -18.71484375 21.69140625 C-16 19 -16 19 -14 19 C-13.73832031 18.41863281 -13.47664063 17.83726562 -13.20703125 17.23828125 C-11.93164068 14.8732366 -10.50221425 13.16316451 -8.6875 11.1875 C-5.49052631 7.62267369 -2.71160545 3.94415338 0 0 Z " fill="#E1E1E1" transform="translate(174,219)"/>
<path d="M0 0 C2.64 0 5.28 0 8 0 C8.33 0.66 8.66 1.32 9 2 C9.99 1.34 10.98 0.68 12 0 C15.06953311 -0.53702697 17.92688279 -0.51033715 21 0 C23.5625 1.8125 23.5625 1.8125 25 5 C25.81687948 11.2500779 25.64291986 16.66572449 22 22 C19.32940055 25.20471934 17.02736031 26.8760855 13 28 C6.64615385 28.32307692 6.64615385 28.32307692 4 27 C4.020625 28.051875 4.04125 29.10375 4.0625 30.1875 C4.01103198 33.32704904 3.73482813 35.96883396 3 39 C0.36 39 -2.28 39 -5 39 C-4.37177538 25.91559764 -2.72663686 12.82043677 0 0 Z " fill="#F3C91E" transform="translate(331,261)"/>
<path d="M0 0 C4.57454698 2.35566373 8.0891229 5.13425441 10 10 C10.45042231 15.58523668 10.25122574 19.23153558 7 24 C2.11638774 27.76445112 -1.7147483 29.38016929 -7.94140625 29.27734375 C-12.64221402 28.64402809 -15.36103785 25.72303612 -18.375 22.3125 C-20.47650352 18.02866591 -20.82454452 14.68644179 -20 10 C-15.87974686 1.60102244 -9.09711656 -1.87540557 0 0 Z " fill="#E3E3E3" transform="translate(130,225)"/>
<path d="M0 0 C0.74958984 0.00451172 1.49917969 0.00902344 2.27148438 0.01367188 C4.11852383 0.02543646 5.96552213 0.04337135 7.8125 0.0625 C7.8397415 1.47905793 7.85900467 2.89577045 7.875 4.3125 C7.88660156 5.10140625 7.89820313 5.8903125 7.91015625 6.703125 C7.8125 9.0625 7.8125 9.0625 7.34375 10.90625 C6.57654307 14.02020752 6.45719865 17.11572076 6.25 20.3125 C6.16621094 21.57578125 6.08242188 22.8390625 5.99609375 24.140625 C5.90521484 25.58695312 5.90521484 25.58695312 5.8125 27.0625 C3.1725 27.0625 0.5325 27.0625 -2.1875 27.0625 C-2.5175 26.0725 -2.8475 25.0825 -3.1875 24.0625 C-4.486875 25.0525 -4.486875 25.0525 -5.8125 26.0625 C-9.49346238 28.24381104 -11.01794432 28.94963951 -15.1875 28.0625 C-18.39642391 25.41164982 -19.8316032 23.78458129 -20.671875 19.71875 C-21.0286797 13.29626544 -19.2993295 8.94970306 -15.1875 4.0625 C-10.54734792 -0.16822689 -6.01625876 -0.06830687 0 0 Z " fill="#F3C71D" transform="translate(378.1875,260.9375)"/>
<path d="M0 0 C0.9384375 -0.00515625 1.876875 -0.0103125 2.84375 -0.015625 C5.54047676 0.25404768 7.18949293 0.8767741 9.5 2.25 C9.5 4.23 9.5 6.21 9.5 8.25 C5.75 9.375 5.75 9.375 3.5 8.25 C-0.55142119 7.99139865 -2.04337669 7.94558446 -5.5 10.25 C-5.17445261 13.21899224 -4.67767728 14.10480136 -2.3203125 16.03125 C-1.43085938 16.5984375 -0.54140625 17.165625 0.375 17.75 C3.78112434 19.93468617 6.40125523 21.7430652 8.5 25.25 C9.33103559 31.69052581 9.33103559 31.69052581 7.55078125 35.03125 C4.93582371 38.39687358 2.4844672 39.97637266 -1.5 41.25 C-7.42827467 41.83678701 -12.97227563 41.64036729 -18.5 39.25 C-18.17 36.61 -17.84 33.97 -17.5 31.25 C-16.654375 31.58 -15.80875 31.91 -14.9375 32.25 C-11.23572148 33.32688102 -8.33569019 33.53948605 -4.5 33.25 C-3.51 32.59 -2.52 31.93 -1.5 31.25 C-1.80944791 28.10216783 -2.0214656 26.66371301 -4.4609375 24.5546875 C-5.25757813 24.08289063 -6.05421875 23.61109375 -6.875 23.125 C-12.68567986 19.62345025 -12.68567986 19.62345025 -14.5 17.25 C-15.18978334 13.85856522 -15.08741205 10.65481431 -14.5 7.25 C-10.51852186 1.94136248 -6.53561105 -0.03590995 0 0 Z " fill="#F3CA25" transform="translate(317.5,247.75)"/>
<path d="M0 0 C1.26459439 3.79378317 0.54453826 5.75281596 -0.375 9.625 C-1.61996289 15.10511061 -2.51771235 20.40546322 -3 26 C-2.34 25.67 -1.68 25.34 -1 25 C-1 25.66 -1 26.32 -1 27 C5.93 27 12.86 27 20 27 C17.42449182 28.71700545 15.64422008 29.56997075 12.76953125 30.5078125 C11.56586914 30.90419922 11.56586914 30.90419922 10.33789062 31.30859375 C9.50451172 31.57800781 8.67113281 31.84742188 7.8125 32.125 C6.96751953 32.40214844 6.12253906 32.67929688 5.25195312 32.96484375 C3.16926307 33.64730716 1.08528809 34.32552526 -1 35 C-1 39.13997696 1.16832917 41.45607031 3.5 44.6875 C3.92925781 45.29400391 4.35851562 45.90050781 4.80078125 46.52539062 C5.86093138 48.02138026 6.92965571 49.511287 8 51 C7.505 51.99 7.505 51.99 7 53 C5.53626953 51.73542969 5.53626953 51.73542969 4.04296875 50.4453125 C2.75788769 49.33845436 1.4727273 48.23168833 0.1875 47.125 C-0.45509766 46.56941406 -1.09769531 46.01382813 -1.75976562 45.44140625 C-2.38173828 44.90644531 -3.00371094 44.37148437 -3.64453125 43.8203125 C-4.21534424 43.32805176 -4.78615723 42.83579102 -5.37426758 42.32861328 C-7.1741464 40.81383993 -7.1741464 40.81383993 -10 39 C-10.66 40.98 -11.32 42.96 -12 45 C-12.33 45 -12.66 45 -13 45 C-12.95875 44.21238281 -12.9175 43.42476562 -12.875 42.61328125 C-13.05844668 37.76914233 -13.34557908 33.91041319 -16.56835938 30.18896484 C-20.46216668 26.58987231 -24.71407962 23.48213584 -29.03710938 20.421875 C-31.81104893 18.41249391 -34.3977582 16.22581689 -37 14 C-35.35 12.35 -33.7 10.7 -32 9 C-25.9659268 13.98466916 -20.48643312 19.4232965 -15 25 C-14.34 25.66 -13.68 26.32 -13 27 C-12.67725098 26.32420898 -12.35450195 25.64841797 -12.02197266 24.95214844 C-10.55668798 21.88458735 -9.09084994 18.81729101 -7.625 15.75 C-7.11710937 14.68652344 -6.60921875 13.62304688 -6.0859375 12.52734375 C-5.59609375 11.50253906 -5.10625 10.47773438 -4.6015625 9.421875 C-4.15119629 8.47924805 -3.70083008 7.53662109 -3.23681641 6.56542969 C-2.17683564 4.36679608 -1.09870703 2.179476 0 0 Z " fill="#F0C917" transform="translate(191,183)"/>
<path d="M0 0 C2.64 0 5.28 0 8 0 C7.33333333 7.33333333 6.66666667 14.66666667 6 22 C6.46148437 21.278125 6.92296875 20.55625 7.3984375 19.8125 C12.66256216 12.32204594 12.66256216 12.32204594 16.7578125 11.3359375 C19.24075812 11.3713071 21.55968876 11.5499426 24 12 C17.84965831 20.44646925 17.84965831 20.44646925 14 24 C15.36591169 27.54243452 16.90931484 30.92627929 18.625 34.3125 C19.07101562 35.19550781 19.51703125 36.07851563 19.9765625 36.98828125 C20.31429688 37.65214844 20.65203125 38.31601562 21 39 C17.77759362 39.72339735 15.19028828 39.94396188 12 39 C9.05137659 35.65074841 7.00541151 31.97213341 5 28 C4.34 31.63 3.68 35.26 3 39 C0.36 39 -2.28 39 -5 39 C-5.27905115 31.92470311 -4.34431378 25.11431784 -3.34594727 18.11621094 C-3.06031135 16.10962479 -2.78446448 14.10185969 -2.50976562 12.09375 C-1.13394515 2.26789029 -1.13394515 2.26789029 0 0 Z " fill="#F2C71C" transform="translate(414,249)"/>
<path d="M0 0 C3.0625 1.5625 3.0625 1.5625 5 4 C5.625 7.5 5.625 7.5 5 11 C1.85568303 14.22929851 -0.90923941 15.91768659 -5.48046875 16.09765625 C-6.37378906 16.08605469 -7.26710937 16.07445312 -8.1875 16.0625 C-9.08855469 16.05347656 -9.98960937 16.04445313 -10.91796875 16.03515625 C-11.60503906 16.02355469 -12.29210937 16.01195312 -13 16 C-12.34 17.98 -11.68 19.96 -11 22 C-9.56208484 21.85831863 -8.1246763 21.71148957 -6.6875 21.5625 C-5.88699219 21.48128906 -5.08648437 21.40007812 -4.26171875 21.31640625 C-1.83912821 21.04734307 -1.83912821 21.04734307 1 20 C1.33 21.98 1.66 23.96 2 26 C-3.2152376 27.73841253 -8.56706081 27.55757323 -14 27 C-17.3125 25.25 -17.3125 25.25 -19 22 C-19.88411163 15.53437557 -19.89797317 10.42164133 -16 5 C-10.66323103 0.31405652 -7.02821546 -0.8482329 0 0 Z " fill="#E7E6E6" transform="translate(246,261)"/>
<path d="M0 0 C2.31 0 4.62 0 7 0 C7.33 0.66 7.66 1.32 8 2 C8.99 1.34 9.98 0.68 11 0 C13.15625 -0.30078125 13.15625 -0.30078125 15.5 -0.3125 C16.2734375 -0.32925781 17.046875 -0.34601563 17.84375 -0.36328125 C20 0 20 0 21.796875 1.0390625 C23.69291445 4.12936057 23.08849236 7.2194379 22.75 10.6875 C22.69207275 11.40486328 22.63414551 12.12222656 22.57446289 12.86132812 C22.17875196 17.59053011 21.6848957 22.30357234 21 27 C18.69 27 16.38 27 14 27 C13.92250104 22.42756107 14.08141184 18.47811726 15 14 C15.03824623 11.66698014 15.04574284 9.33288492 15 7 C12.08365871 6.7497843 12.08365871 6.7497843 9 7 C7.14817905 9.77773142 6.6658319 10.88383445 6.1484375 14.01171875 C6.01953125 14.76904297 5.890625 15.52636719 5.7578125 16.30664062 C5.63148438 17.09232422 5.50515625 17.87800781 5.375 18.6875 C5.2409375 19.48478516 5.106875 20.28207031 4.96875 21.10351562 C4.6393854 23.0679402 4.31883687 25.03383927 4 27 C1.69 27 -0.62 27 -3 27 C-2.4262611 17.91076799 -1.38949558 8.99799566 0 0 Z " fill="#E1E0E0" transform="translate(274,261)"/>
<path d="M0 0 C2.31 0 4.62 0 7 0 C7 0.99 7 1.98 7 3 C7.66 2.505 8.32 2.01 9 1.5 C13.07400419 -0.5370021 15.46723344 -0.43865483 20 0 C21.7578125 1.04296875 21.7578125 1.04296875 23 3 C23.08316974 5.67034283 23.00747737 8.04948629 22.75 10.6875 C22.69207275 11.40486328 22.63414551 12.12222656 22.57446289 12.86132812 C22.17875196 17.59053011 21.6848957 22.30357234 21 27 C18.69 27 16.38 27 14 27 C14.33 20.4 14.66 13.8 15 7 C10.25181285 6.4531844 10.25181285 6.4531844 8.29296875 8.484375 C6.50176458 11.96937647 5.93406191 15.4051471 5.3125 19.25 C5.18294922 19.99507813 5.05339844 20.74015625 4.91992188 21.5078125 C4.60335738 23.33685178 4.30032601 25.16822435 4 27 C1.69 27 -0.62 27 -3 27 C-2.69106634 23.6246637 -2.37721367 20.24980189 -2.0625 16.875 C-1.97548828 15.92367188 -1.88847656 14.97234375 -1.79882812 13.9921875 C-1.35804822 9.29053519 -0.86831805 4.64667498 0 0 Z " fill="#E3E2E2" transform="translate(184,261)"/>
<path d="M0 0 C0.66 0.33 1.32 0.66 2 1 C-13.92224979 33.9611249 -13.92224979 33.9611249 -24 39 C-24.10957031 38.13117188 -24.21914062 37.26234375 -24.33203125 36.3671875 C-25.16427812 30.3181737 -25.96659851 25.37739355 -29 20 C-29 18.68 -29 17.36 -29 16 C-27.96101563 15.63648438 -26.92203125 15.27296875 -25.8515625 14.8984375 C-11.16583679 10.05936581 -11.16583679 10.05936581 0 0 Z " fill="#E3BB1C" transform="translate(142,268)"/>
<path d="M0 0 C2.31 0 4.62 0 7 0 C7 2.31 7 4.62 7 7 C8.98 7 10.96 7 13 7 C13 8.98 13 10.96 13 13 C10.36 13 7.72 13 5 13 C5 17.95 5 22.9 5 28 C6.65 28.33 8.3 28.66 10 29 C10 30.65 10 32.3 10 34 C8.39667209 34.08121924 6.79215974 34.13929134 5.1875 34.1875 C3.84751953 34.23970703 3.84751953 34.23970703 2.48046875 34.29296875 C0 34 0 34 -1.65039062 32.74609375 C-3.35771262 30.53719959 -3.28885801 29.52081627 -3.07421875 26.76953125 C-3.01943359 25.96708984 -2.96464844 25.16464844 -2.90820312 24.33789062 C-2.83537109 23.50451172 -2.76253906 22.67113281 -2.6875 21.8125 C-2.62626953 20.96751953 -2.56503906 20.12253906 -2.50195312 19.25195312 C-2.34881209 17.16687905 -2.17625843 15.08324724 -2 13 C-2.99 13 -3.98 13 -5 13 C-5 11.02 -5 9.04 -5 7 C-3.35 7 -1.7 7 0 7 C0 4.69 0 2.38 0 0 Z " fill="#E3E3E3" transform="translate(214,254)"/>
<path d="M0 0 C2.64 0 5.28 0 8 0 C8.33 0.99 8.66 1.98 9 3 C9.37125 2.505 9.7425 2.01 10.125 1.5 C12.74694393 -0.59755514 14.73842472 -0.21743835 18 0 C18 1.98 18 3.96 18 6 C16.30729167 6.61848958 14.61458333 7.23697917 12.921875 7.85546875 C10.16010566 9.50018098 8.76061139 11.31432161 7 14 C6.09979546 17.33102867 6.09979546 17.33102867 5.75 20.8125 C5.60046875 21.97394531 5.4509375 23.13539063 5.296875 24.33203125 C5.19890625 25.21246094 5.1009375 26.09289062 5 27 C2.36 27 -0.28 27 -3 27 C-2.56408185 17.85719039 -1.9577539 8.97145478 0 0 Z " fill="#F1C51C" transform="translate(391,261)"/>
<path d="M0 0 C2.31 0 4.62 0 7 0 C7.33 0.99 7.66 1.98 8 3 C8.556875 2.505 9.11375 2.01 9.6875 1.5 C12.38162983 -0.24754367 13.85375007 -0.26218749 17 0 C17 1.98 17 3.96 17 6 C15.9275 6.20625 14.855 6.4125 13.75 6.625 C10.24609717 7.90976437 8.65402492 8.65737793 6.77734375 11.87109375 C5.01210276 16.70554771 4.57384103 21.91093614 4 27 C1.69 27 -0.62 27 -3 27 C-2.6900234 23.81224942 -2.37655764 20.6248509 -2.0625 17.4375 C-1.97548828 16.54224609 -1.88847656 15.64699219 -1.79882812 14.72460938 C-1.31123251 9.79447591 -0.7457681 4.89788241 0 0 Z " fill="#E0DFDF" transform="translate(255,261)"/>
<path d="M0 0 C3.06440261 2.79793281 3.89585634 4.84251765 4.2734375 9.0390625 C4.62707244 21.52509617 4.62707244 21.52509617 1.1015625 27.01953125 C-3.60693399 31.45672032 -9.93522421 33.94730666 -16 36 C-16.66 35.67 -17.32 35.34 -18 35 C-16.96875 34.195625 -15.9375 33.39125 -14.875 32.5625 C-6.37531975 25.21328152 -1.52305857 14.92124394 -0.25 3.8125 C-0.1675 2.554375 -0.085 1.29625 0 0 Z " fill="#E5E2DF" transform="translate(113,288)"/>
<path d="M0 0 C2.31 0 4.62 0 7 0 C6.69425682 4.12553029 6.37926598 8.25030258 6.0625 12.375 C5.93198242 14.1384375 5.93198242 14.1384375 5.79882812 15.9375 C5.66831055 17.61972656 5.66831055 17.61972656 5.53515625 19.3359375 C5.456604 20.37282715 5.37805176 21.4097168 5.29711914 22.47802734 C5 25 5 25 4 27 C1.69 27 -0.62 27 -3 27 C-2.35878726 17.93865155 -1.26519458 8.99147995 0 0 Z " fill="#DDDCDB" transform="translate(173,261)"/>
<path d="M0 0 C4.875 0.875 4.875 0.875 6 2 C6.13763823 6.75835031 5.60188071 10.157367 2.8125 14.0625 C-0.44699813 16.30793205 -2.12452513 16.45063661 -6 16 C-5.84653748 8.94072393 -5.1246795 4.99327746 0 0 Z " fill="#110F02" transform="translate(342,267)"/>
<path d="M0 0 C0.34409526 5.62022252 -0.13230996 9.22051659 -3 14 C-6.0625 15.0625 -6.0625 15.0625 -9 15 C-11 13 -11 13 -11.375 10.25 C-10.91024367 6.22211178 -9.49246304 4.15223267 -7 1 C-4.53721199 -0.231394 -2.7204945 -0.07159196 0 0 Z " fill="#0C0A01" transform="translate(377,267)"/>
<path d="M0 0 C0.33 1.32 0.66 2.64 1 4 C-2.85756507 6.15305957 -5.55129785 7.39253254 -10 7 C-9.60856977 4.72970466 -9.11258722 3.16591802 -7.8125 1.25 C-5.21312784 -0.54267046 -3.07660784 -0.20510719 0 0 Z " fill="#1B1B1B" transform="translate(244,266)"/>
<path d="M0 0 C1.99954746 -0.04254356 4.00041636 -0.04080783 6 0 C7 1 7 1 7.1875 3.4375 C7 6 7 6 5 8 C2.375 7.625 2.375 7.625 0 7 C-1.125 2.25 -1.125 2.25 0 0 Z " fill="#E3E2E2" transform="translate(175,250)"/>
<path d="M0 0 C12.66970387 3.07517084 12.66970387 3.07517084 18 5 C14.09519751 6.35862973 10.2898224 5.89469712 6.25 5.5625 C5.55261719 5.51029297 4.85523438 5.45808594 4.13671875 5.40429688 C2.42403797 5.27525928 0.71194934 5.13840386 -1 5 C-0.67 3.35 -0.34 1.7 0 0 Z " fill="#D3B313" transform="translate(147,207)"/>
<path d="M0 0 C0.66 0.33 1.32 0.66 2 1 C-4.49838836 5.43347991 -10.4014885 8.88238204 -18 11 C-18 10.34 -18 9.68 -18 9 C-18.99 8.67 -19.98 8.34 -21 8 C-20.154375 7.75765625 -19.30875 7.5153125 -18.4375 7.265625 C-10.67574416 4.98573198 -10.67574416 4.98573198 -3.3125 1.6875 C-1.6728125 0.8521875 -1.6728125 0.8521875 0 0 Z " fill="#252217" transform="translate(138,271)"/>
<path d="M0 0 C0.33 0 0.66 0 1 0 C0.67 2.64 0.34 5.28 0 8 C-0.66 8 -1.32 8 -2 8 C-2.4125 9.11375 -2.825 10.2275 -3.25 11.375 C-4.35546516 13.99320695 -4.74880787 14.83493089 -7.1875 16.4375 C-7.785625 16.623125 -8.38375 16.80875 -9 17 C-7.51463956 12.97683781 -5.60123107 9.38707358 -3.4375 5.6875 C-2.81746094 4.61886719 -2.19742188 3.55023438 -1.55859375 2.44921875 C-1.04425781 1.64097656 -0.52992188 0.83273438 0 0 Z " fill="#7E6C1D" transform="translate(168,236)"/>
<path d="M0 0 C1.65 0 3.3 0 5 0 C5.625 1.875 5.625 1.875 6 4 C5.34 4.66 4.68 5.32 4 6 C1.375 5.625 1.375 5.625 -1 5 C-0.67 3.35 -0.34 1.7 0 0 Z " fill="#EBC311" transform="translate(156,219)"/>
<path d="M0 0 C-0.33 1.32 -0.66 2.64 -1 4 C-3.64 4.33 -6.28 4.66 -9 5 C-9.33 4.01 -9.66 3.02 -10 2 C-8.71211992 1.46987262 -7.41953322 0.9511671 -6.125 0.4375 C-5.40570313 0.14746094 -4.68640625 -0.14257812 -3.9453125 -0.44140625 C-2 -1 -2 -1 0 0 Z " fill="#433607" transform="translate(198,216)"/>
<path d="M0 0 C1.27382218 3.82146654 0.97333827 6.10664693 0 10 C-2.5625 11.9375 -2.5625 11.9375 -5 13 C-4.39254603 8.14036821 -2.27241033 4.2594482 0 0 Z " fill="#DFBD17" transform="translate(191,183)"/>
<path d="M0 0 C2.29633824 3.44450737 2.54016485 5.93812283 3 10 C1.68 10.33 0.36 10.66 -1 11 C-1.125 3.375 -1.125 3.375 0 0 Z " fill="#D1B613" transform="translate(181,231)"/>
<path d="M0 0 C0.66 0.33 1.32 0.66 2 1 C-1.3 3.97 -4.6 6.94 -8 10 C-8.33 9.01 -8.66 8.02 -9 7 C-6.03 4.69 -3.06 2.38 0 0 Z " fill="#C7C5C5" transform="translate(100,256)"/>
<path d="M0 0 C0.99 0 1.98 0 3 0 C3 0.99 3 1.98 3 3 C3.66 3.33 4.32 3.66 5 4 C4.34 5.32 3.68 6.64 3 8 C0.9375 6.25 0.9375 6.25 -1 4 C-0.75 1.75 -0.75 1.75 0 0 Z " fill="#4B440A" transform="translate(175,203)"/>
<path d="M0 0 C1.65 0 3.3 0 5 0 C4.01 0.495 4.01 0.495 3 1 C2.67 1.99 2.34 2.98 2 4 C2.66 4.33 3.32 4.66 4 5 C4 6.65 4 8.3 4 10 C3.67 8.68 3.34 7.36 3 6 C2.01 6 1.02 6 0 6 C0 4.02 0 2.04 0 0 Z " fill="#A8A7A7" transform="translate(209,261)"/>
<path d="M0 0 C0.33 0 0.66 0 1 0 C1.33 3.96 1.66 7.92 2 12 C1.01 11.67 0.02 11.34 -1 11 C-0.67 7.37 -0.34 3.74 0 0 Z " fill="#1E1904" transform="translate(356,269)"/>
<path d="M0 0 C0.66 0.33 1.32 0.66 2 1 C-0.64 2.65 -3.28 4.3 -6 6 C-6.66 5.34 -7.32 4.68 -8 4 C-6.71349294 3.30289269 -5.42059335 2.61757124 -4.125 1.9375 C-3.40570313 1.55464844 -2.68640625 1.17179687 -1.9453125 0.77734375 C-1.30335938 0.52082031 -0.66140625 0.26429688 0 0 Z " fill="#312D1E" transform="translate(138,271)"/>
</svg>
